<svg width="220" height="155" viewBox="0 0 220 155" fill="none" xmlns="http://www.w3.org/2000/svg">
<path d="M47.6824 78.0172C47.522 78.0172 47.3682 77.9538 47.2548 77.841C47.1414 77.7282 47.0776 77.5753 47.0776 77.4158V60.4462C47.0776 60.2867 47.1414 60.1337 47.2548 60.0209C47.3682 59.9081 47.522 59.8447 47.6824 59.8447C47.8427 59.8447 47.9966 59.9081 48.11 60.0209C48.2234 60.1337 48.2871 60.2867 48.2871 60.4462V77.4152C48.2872 77.4942 48.2716 77.5725 48.2412 77.6455C48.2108 77.7186 48.1663 77.7849 48.1102 77.8408C48.054 77.8968 47.9873 77.9411 47.9139 77.9714C47.8405 78.0016 47.7618 78.0172 47.6824 78.0172Z" fill="#262626"/>
<path d="M53.2491 69.533H42.1155C41.9551 69.533 41.8013 69.4696 41.6879 69.3568C41.5745 69.244 41.5107 69.091 41.5107 68.9315C41.5107 68.772 41.5745 68.619 41.6879 68.5062C41.8013 68.3934 41.9551 68.3301 42.1155 68.3301H53.2491C53.4095 68.3301 53.5633 68.3934 53.6767 68.5062C53.7902 68.619 53.8539 68.772 53.8539 68.9315C53.8539 69.091 53.7902 69.244 53.6767 69.3568C53.5633 69.4696 53.4095 69.533 53.2491 69.533Z" fill="#262626"/>
<path d="M193.853 120.551C193.74 120.551 193.632 120.506 193.552 120.426C193.472 120.347 193.427 120.239 193.427 120.126V111.025C193.43 110.914 193.476 110.809 193.555 110.732C193.635 110.655 193.742 110.611 193.853 110.611C193.964 110.611 194.071 110.655 194.151 110.732C194.231 110.809 194.277 110.914 194.28 111.025V120.126C194.28 120.182 194.269 120.237 194.247 120.289C194.226 120.34 194.194 120.387 194.155 120.426C194.115 120.466 194.068 120.497 194.017 120.518C193.965 120.54 193.909 120.551 193.853 120.551Z" fill="#262626"/>
<path d="M196.839 115.999H190.867C190.81 116 190.754 115.99 190.701 115.97C190.648 115.949 190.599 115.918 190.558 115.878C190.518 115.839 190.485 115.792 190.463 115.739C190.441 115.687 190.43 115.631 190.43 115.575C190.43 115.518 190.441 115.462 190.463 115.41C190.485 115.358 190.518 115.31 190.558 115.271C190.599 115.231 190.648 115.2 190.701 115.18C190.754 115.159 190.81 115.149 190.867 115.151H196.839C196.896 115.149 196.953 115.159 197.006 115.18C197.059 115.2 197.107 115.231 197.148 115.271C197.188 115.31 197.221 115.358 197.243 115.41C197.265 115.462 197.277 115.518 197.277 115.575C197.277 115.631 197.265 115.687 197.243 115.739C197.221 115.792 197.188 115.839 197.148 115.878C197.107 115.918 197.059 115.949 197.006 115.97C196.953 115.99 196.896 116 196.839 115.999Z" fill="#262626"/>
<path d="M175.341 14.8203C175.285 14.8203 175.229 14.8093 175.177 14.788C175.126 14.7667 175.079 14.7354 175.039 14.696C174.999 14.6566 174.968 14.6098 174.947 14.5584C174.925 14.5069 174.914 14.4517 174.914 14.396V5.29437C174.914 5.18185 174.959 5.07394 175.039 4.99438C175.119 4.91482 175.227 4.87012 175.341 4.87012C175.454 4.87012 175.562 4.91482 175.642 4.99438C175.722 5.07394 175.767 5.18185 175.767 5.29437V14.396C175.767 14.5085 175.722 14.6164 175.642 14.696C175.562 14.7756 175.454 14.8203 175.341 14.8203Z" fill="#262626"/>
<path d="M178.326 10.2702H172.354C172.243 10.2674 172.137 10.2215 172.06 10.1423C171.982 10.063 171.938 9.95678 171.938 9.84613C171.938 9.73548 171.982 9.62921 172.06 9.54998C172.137 9.47075 172.243 9.42483 172.354 9.42201H178.326C178.383 9.42057 178.44 9.43047 178.493 9.45114C178.546 9.47181 178.594 9.50282 178.635 9.54234C178.676 9.58187 178.708 9.62911 178.73 9.68128C178.752 9.73346 178.764 9.78951 178.764 9.84613C178.764 9.90275 178.752 9.9588 178.73 10.011C178.708 10.0631 178.676 10.1104 178.635 10.1499C178.594 10.1894 178.546 10.2205 178.493 10.2411C178.44 10.2618 178.383 10.2717 178.326 10.2702Z" fill="#262626"/>
<path d="M204.993 154.883H51.9853C51.8752 154.883 51.7697 154.84 51.6919 154.762C51.614 154.685 51.5703 154.58 51.5703 154.47C51.5703 154.361 51.614 154.256 51.6919 154.178C51.7697 154.101 51.8752 154.058 51.9853 154.058H204.993C205.103 154.058 205.209 154.101 205.287 154.178C205.365 154.256 205.408 154.361 205.408 154.47C205.408 154.58 205.365 154.685 205.287 154.762C205.209 154.84 205.103 154.883 204.993 154.883Z" fill="#262626"/>
<path d="M163.262 137.863H89.5539C89.4242 137.863 89.2987 137.817 89.1993 137.734C89.1 137.651 89.0331 137.536 89.0104 137.409L64.9308 1.09805H42.0626C41.9226 1.0887 41.7914 1.02678 41.6955 0.924852C41.5997 0.822919 41.5464 0.688579 41.5464 0.549026C41.5464 0.409473 41.5997 0.275133 41.6955 0.1732C41.7914 0.0712671 41.9226 0.00935622 42.0626 0L65.3944 0C65.5242 0.000266967 65.6497 0.0458777 65.749 0.12886C65.8484 0.211842 65.9153 0.326916 65.938 0.453968L90.0168 136.765H163.261C163.401 136.774 163.532 136.836 163.628 136.938C163.724 137.04 163.777 137.174 163.777 137.314C163.777 137.453 163.724 137.588 163.628 137.69C163.532 137.792 163.401 137.854 163.261 137.863H163.262Z" fill="#262626"/>
<path d="M173.669 100.108H82.8222C82.7465 100.113 82.6707 100.103 82.5993 100.077C82.5279 100.052 82.4625 100.013 82.4072 99.9611C82.3518 99.9096 82.3077 99.8474 82.2775 99.7782C82.2474 99.7091 82.2318 99.6345 82.2318 99.5592C82.2318 99.4838 82.2474 99.4092 82.2775 99.3401C82.3077 99.271 82.3518 99.2087 82.4072 99.1572C82.4625 99.1058 82.5279 99.0661 82.5993 99.0408C82.6707 99.0155 82.7465 99.0051 82.8222 99.0101H173.25L190.899 36.2553H72.0298C71.8898 36.2459 71.7586 36.184 71.6628 36.0821C71.567 35.9801 71.5137 35.8458 71.5137 35.7063C71.5137 35.5667 71.567 35.4324 71.6628 35.3304C71.7586 35.2285 71.8898 35.1666 72.0298 35.1572H191.627C191.712 35.1572 191.796 35.1768 191.872 35.2145C191.949 35.2522 192.015 35.3069 192.067 35.3744C192.118 35.4419 192.153 35.5204 192.169 35.6036C192.185 35.6868 192.181 35.7726 192.158 35.8541L174.2 99.7073C174.167 99.8225 174.098 99.924 174.002 99.9964C173.906 100.069 173.789 100.108 173.669 100.108Z" fill="#262626"/>
<path d="M130.379 99.5709C130.233 99.5709 130.092 99.5129 129.988 99.4097C129.884 99.3065 129.826 99.1666 129.826 99.0206V36.7858C129.836 36.6469 129.899 36.517 130.001 36.4221C130.103 36.3272 130.238 36.2744 130.378 36.2744C130.518 36.2744 130.653 36.3272 130.755 36.4221C130.858 36.517 130.92 36.6469 130.93 36.7858V99.0206C130.93 99.1661 130.872 99.3057 130.769 99.4088C130.666 99.5119 130.526 99.5702 130.379 99.5709Z" fill="#262626"/>
<path d="M145.451 99.571C145.435 99.571 145.419 99.571 145.403 99.5688C145.33 99.5626 145.26 99.5423 145.196 99.5091C145.131 99.4759 145.074 99.4304 145.028 99.3752C144.981 99.32 144.946 99.2562 144.924 99.1875C144.902 99.1187 144.894 99.0464 144.901 98.9745L150.328 36.7397C150.334 36.6676 150.354 36.5974 150.387 36.5331C150.42 36.4688 150.466 36.4116 150.522 36.365C150.577 36.3183 150.642 36.283 150.711 36.2611C150.78 36.2392 150.853 36.2312 150.926 36.2374C150.998 36.2437 151.069 36.2641 151.133 36.2975C151.197 36.331 151.255 36.3768 151.301 36.4322C151.348 36.4877 151.383 36.5519 151.405 36.6209C151.426 36.69 151.434 36.7626 151.427 36.8346L146 99.0695C145.988 99.2062 145.925 99.3336 145.824 99.4265C145.722 99.5193 145.589 99.5709 145.451 99.571Z" fill="#262626"/>
<path d="M160.523 99.57C160.491 99.5701 160.459 99.5674 160.428 99.5618C160.356 99.5495 160.288 99.5233 160.227 99.4847C160.165 99.4462 160.112 99.396 160.071 99.337C160.029 99.2781 159.999 99.2115 159.984 99.1412C159.968 99.0708 159.966 98.9981 159.978 98.927L170.833 36.6922C170.859 36.5496 170.94 36.4231 171.06 36.3401C171.179 36.2572 171.327 36.2245 171.47 36.2493C171.614 36.2741 171.742 36.3543 171.826 36.4725C171.91 36.5907 171.944 36.7372 171.92 36.8801L161.066 99.115C161.043 99.2421 160.977 99.3574 160.877 99.4406C160.778 99.5238 160.653 99.5696 160.523 99.57Z" fill="#262626"/>
<path d="M115.308 99.5701C115.17 99.57 115.037 99.5184 114.935 99.4256C114.833 99.3327 114.771 99.2053 114.759 99.0685L109.331 36.8337C109.32 36.6891 109.366 36.5457 109.46 36.4349C109.554 36.3241 109.688 36.2548 109.834 36.2423C109.979 36.2297 110.123 36.2749 110.235 36.368C110.347 36.461 110.418 36.5943 110.431 36.7388L115.858 98.9736C115.865 99.0454 115.857 99.1178 115.835 99.1865C115.813 99.2553 115.778 99.3191 115.731 99.3743C115.684 99.4294 115.627 99.475 115.563 99.5082C115.499 99.5414 115.428 99.5617 115.356 99.5679C115.34 99.5679 115.324 99.5701 115.308 99.5701Z" fill="#262626"/>
<path d="M100.236 99.5706C100.106 99.5705 99.9806 99.5248 99.8812 99.4416C99.7819 99.3583 99.7153 99.2429 99.6931 99.1156L88.6505 35.8011C88.6375 35.7298 88.6388 35.6567 88.6543 35.586C88.6699 35.5152 88.6994 35.4482 88.741 35.3889C88.7827 35.3295 88.8358 35.2789 88.8973 35.2401C88.9587 35.2012 89.0273 35.1748 89.099 35.1624C89.1708 35.15 89.2442 35.1518 89.3153 35.1678C89.3863 35.1838 89.4534 35.2136 89.5128 35.2555C89.5722 35.2974 89.6227 35.3506 89.6613 35.412C89.6999 35.4734 89.726 35.5417 89.7379 35.6132L100.781 98.9263C100.793 98.9973 100.791 99.0701 100.775 99.1404C100.76 99.2108 100.73 99.2773 100.688 99.3362C100.646 99.3952 100.593 99.4454 100.532 99.484C100.471 99.5225 100.403 99.5487 100.331 99.561C100.3 99.5671 100.268 99.5703 100.236 99.5706Z" fill="#262626"/>
<path d="M185.83 56.8073H75.3941C75.3185 56.8124 75.2426 56.8019 75.1712 56.7766C75.0999 56.7513 75.0344 56.7117 74.9791 56.6602C74.9237 56.6087 74.8796 56.5465 74.8495 56.4773C74.8193 56.4082 74.8037 56.3336 74.8037 56.2583C74.8037 56.1829 74.8193 56.1083 74.8495 56.0392C74.8796 55.9701 74.9237 55.9078 74.9791 55.8563C75.0344 55.8049 75.0999 55.7653 75.1712 55.7399C75.2426 55.7146 75.3185 55.7042 75.3941 55.7092H185.83C185.97 55.7186 186.102 55.7805 186.197 55.8824C186.293 55.9844 186.347 56.1187 186.347 56.2583C186.347 56.3978 186.293 56.5322 186.197 56.6341C186.102 56.736 185.97 56.7979 185.83 56.8073Z" fill="#262626"/>
<path d="M179.939 78.3979H79.5626C79.4226 78.3885 79.2914 78.3266 79.1955 78.2247C79.0997 78.1227 79.0464 77.9884 79.0464 77.8488C79.0464 77.7093 79.0997 77.5749 79.1955 77.473C79.2914 77.3711 79.4226 77.3092 79.5626 77.2998H179.939C180.079 77.3092 180.21 77.3711 180.306 77.473C180.402 77.5749 180.455 77.7093 180.455 77.8488C180.455 77.9884 180.402 78.1227 180.306 78.2247C180.21 78.3266 180.079 78.3885 179.939 78.3979Z" fill="#262626"/>
<path d="M97.6146 138.85C99.0337 138.85 100.421 139.268 101.601 140.052C102.781 140.837 103.701 141.951 104.244 143.255C104.787 144.559 104.929 145.994 104.652 147.378C104.375 148.763 103.692 150.034 102.688 151.032C101.684 152.03 100.406 152.71 99.0139 152.985C97.622 153.261 96.1792 153.119 94.8681 152.579C93.557 152.039 92.4364 151.124 91.6481 149.95C90.8597 148.776 90.4391 147.397 90.4392 145.985C90.4413 144.093 91.198 142.279 92.5432 140.941C93.8884 139.603 95.7122 138.851 97.6146 138.849M97.6146 137.751C95.9771 137.751 94.3764 138.234 93.0149 139.139C91.6534 140.043 90.5923 141.329 89.9657 142.834C89.339 144.339 89.1751 145.994 89.4945 147.592C89.814 149.189 90.6025 150.656 91.7603 151.808C92.9182 152.959 94.3934 153.743 95.9994 154.061C97.6054 154.379 99.27 154.216 100.783 153.592C102.296 152.969 103.589 151.914 104.498 150.56C105.408 149.206 105.894 147.614 105.894 145.985C105.894 143.801 105.021 141.707 103.469 140.163C101.916 138.619 99.8103 137.751 97.6146 137.751Z" fill="#262626"/>
<path d="M154.289 138.802C155.708 138.802 157.096 139.221 158.276 140.005C159.456 140.789 160.375 141.904 160.918 143.208C161.462 144.512 161.604 145.946 161.327 147.331C161.05 148.715 160.367 149.987 159.363 150.985C158.36 151.983 157.081 152.662 155.689 152.938C154.297 153.213 152.855 153.072 151.543 152.532C150.232 151.992 149.112 151.077 148.323 149.903C147.535 148.73 147.114 147.35 147.114 145.939C147.116 144.047 147.873 142.233 149.218 140.895C150.563 139.557 152.387 138.804 154.289 138.802M154.289 137.704C152.652 137.704 151.051 138.187 149.69 139.092C148.328 139.997 147.267 141.283 146.64 142.788C146.014 144.292 145.85 145.948 146.169 147.545C146.489 149.142 147.277 150.61 148.435 151.761C149.593 152.913 151.068 153.697 152.674 154.014C154.28 154.332 155.945 154.169 157.458 153.546C158.97 152.923 160.263 151.867 161.173 150.513C162.083 149.159 162.568 147.567 162.568 145.939C162.568 144.857 162.354 143.786 161.938 142.787C161.522 141.788 160.912 140.881 160.144 140.116C159.375 139.351 158.462 138.745 157.458 138.331C156.453 137.917 155.377 137.704 154.289 137.704L154.289 137.704Z" fill="#262626"/>
<path opacity="0.1" d="M57.3875 154.172C37.2397 154.172 22.619 133.821 28.4239 113.581C31.7064 102.135 38.2278 90.9665 50.6293 84.1927C84.5665 65.6557 81.5769 70.7388 97.5741 39.5886C113.571 8.43845 154.392 5.07248 177.11 27.0151C209.243 58.05 190.163 78.7498 210.497 100.082C210.709 100.304 210.918 100.528 211.124 100.752C229.496 120.765 215.671 154.173 189.187 154.173L57.3875 154.172Z" fill="#367CFF"/>
<path d="M66.7388 120.539H17.4916C17.3816 120.539 17.276 120.496 17.1982 120.418C17.1204 120.341 17.0767 120.236 17.0767 120.127C17.0767 120.017 17.1204 119.912 17.1982 119.835C17.276 119.757 17.3816 119.714 17.4916 119.714H66.7388C66.8488 119.714 66.9544 119.757 67.0322 119.835C67.11 119.912 67.1537 120.017 67.1537 120.127C67.1537 120.236 67.11 120.341 67.0322 120.418C66.9544 120.496 66.8488 120.539 66.7388 120.539Z" fill="#262626"/>
<path d="M23.7427 139.262H0.414951C0.304899 139.262 0.199355 139.218 0.121536 139.141C0.0437179 139.064 0 138.959 0 138.849C0 138.74 0.0437179 138.635 0.121536 138.557C0.199355 138.48 0.304899 138.437 0.414951 138.437H23.7427C23.8527 138.437 23.9582 138.48 24.0361 138.557C24.1139 138.635 24.1576 138.74 24.1576 138.849C24.1576 138.959 24.1139 139.064 24.0361 139.141C23.9582 139.218 23.8527 139.262 23.7427 139.262Z" fill="#262626"/>
</svg>
